<?xml version="1.0" encoding="utf-8"?>
<svg viewBox="0 0 360.779 358.125" xmlns="http://www.w3.org/2000/svg">
  <ellipse style="stroke-width: 25px; fill: rgba(170, 170, 170, 0); stroke: rgb(230, 138, 46);" cx="179.282" cy="178.428" rx="165.671" ry="164.711"/>
  <path d="M 392.246 302.235 L 292.051 302.235 L 292.051 276.649 L 392.246 276.649 Z M 392.246 258.875 L 292.051 258.875 L 292.051 233.289 L 392.246 233.289 Z" transform="matrix(0.391794, 0, 0, 1, 160.377246, -86.151087)" style="fill: rgb(230, 138, 46); white-space: pre;"/>
  <path d="M 392.246 302.235 L 292.051 302.235 L 292.051 276.649 L 392.246 276.649 Z M 392.246 258.875 L 292.051 258.875 L 292.051 233.289 L 392.246 233.289 Z" transform="matrix(0.391794, 0, 0, 1, -64.955789, -81.541727)" style="white-space: pre; fill: rgb(230, 138, 46);"/>
  <path d="M 185.579 266.711 L 130.892 266.711 C 122.998 266.711 117.363 264.941 113.985 261.401 C 110.608 257.861 108.919 252.225 108.919 244.494 L 108.919 109.973 C 108.919 102.079 110.649 96.403 114.107 92.944 C 117.566 89.485 123.161 87.756 130.892 87.756 L 173.125 87.944 C 181.671 87.944 186.26 88.082 211 88.077 C 235.74 88.072 247.783 90.869 248.12 104.161 C 248.514 119.692 230.568 119.365 212.425 119.365 C 205.709 119.365 187.777 118.978 174.593 118.978 L 145.174 118.978 L 145.174 161.242 L 178.377 161.242 C 204.889 162.396 209.839 162.323 223.68 166.622 C 245.131 173.627 257.601 194.039 257.601 215.686 C 257.601 225.695 255.038 234.708 249.91 242.724 C 244.784 250.74 237.866 256.66 229.158 260.485 C 223.706 262.764 217.44 264.371 210.36 265.307 C 203.28 266.243 195.019 266.711 185.579 266.711 Z M 182.894 187.243 L 145.174 187.243 L 145.174 239.489 L 184.114 239.489 C 208.61 239.489 220.858 230.659 220.858 213 C 220.858 203.967 217.684 197.416 211.336 193.347 C 204.989 189.278 195.508 187.243 182.894 187.243 Z" style="paint-order: fill; stroke-linecap: round; stroke-miterlimit: 1; white-space: pre; fill: rgb(230, 138, 46);"/>
  <path d="M 219.007 228.84 L 164.32 228.84 C 156.351 228.829 150.535 226.981 147.051 223.375 C 143.616 219.734 141.858 213.926 141.847 206.123 L 141.847 71.602 C 141.858 63.635 143.661 57.782 147.181 54.219 C 150.743 50.698 156.515 48.896 164.32 48.885 L 222.303 48.885 C 230.867 48.886 238.314 49.417 244.603 50.479 C 250.913 51.544 256.614 53.613 261.622 56.646 C 265.888 59.193 269.694 62.442 272.978 66.336 C 276.259 70.236 278.785 74.585 280.512 79.303 C 282.164 83.892 291.415 93.179 291.415 98.564 C 291.415 107.651 286.978 114.538 280.367 120.073 C 273.768 125.598 265.671 129.542 257.111 133.532 C 268.33 137.293 276.667 142.493 282.599 149.84 C 288.534 157.193 291.529 166.414 291.529 177.315 C 291.529 187.392 288.917 196.54 283.759 204.622 C 278.585 212.694 271.549 218.711 262.779 222.575 C 257.293 224.866 250.963 226.492 243.854 227.432 C 236.755 228.37 228.461 228.84 219.007 228.84 Z M 243.722 226.44 C 250.773 225.508 256.972 223.921 262.389 221.654 C 271.033 217.868 277.839 212.044 282.917 204.084 C 288.015 196.134 290.529 187.256 290.529 177.315 C 290.529 166.569 287.644 157.682 281.82 150.468 C 275.992 143.248 267.302 137.807 255.598 134.089 L 254.373 133.7 L 255.54 133.159 C 264.487 129.011 273.218 124.754 279.726 119.306 C 286.222 113.867 290.415 107.38 290.415 98.564 C 290.415 93.531 281.34 84.416 279.572 79.647 C 277.883 75.007 275.445 70.81 272.214 66.98 C 268.988 63.144 265.308 60.003 261.11 57.504 C 256.191 54.515 250.659 52.516 244.437 51.465 C 238.194 50.411 230.831 49.884 222.303 49.885 L 164.32 49.885 C 156.663 49.874 151.245 51.53 147.889 54.927 C 144.493 58.282 142.836 63.781 142.847 71.602 L 142.847 206.123 C 142.836 213.782 144.456 219.246 147.775 222.685 C 151.047 226.159 156.501 227.851 164.32 227.84 L 219.007 227.84 C 228.433 227.84 236.661 227.374 243.722 226.44 Z M 245.034 154.555 C 251.472 158.726 254.786 165.487 254.786 174.629 C 254.786 183.563 251.616 190.415 245.392 194.901 C 239.192 199.372 229.848 201.611 217.542 201.618 L 178.102 201.618 L 178.102 148.372 L 216.322 148.372 C 228.988 148.378 238.604 150.452 245.034 154.555 Z M 216.322 149.372 L 179.102 149.372 L 179.102 200.618 L 217.542 200.618 C 229.732 200.625 238.76 198.449 244.808 194.09 C 250.832 189.747 253.786 183.354 253.786 174.629 C 253.786 165.705 250.752 159.364 244.494 155.397 C 238.23 151.362 228.884 149.366 216.322 149.372 Z M 208.021 76.107 C 221.242 76.11 231.153 77.618 237.65 80.608 C 244.194 83.688 247.583 89.917 247.583 99.068 C 247.583 103.363 246.524 107.31 244.467 110.789 C 241.806 115.66 237.91 119.024 232.904 120.78 C 227.929 122.501 220.869 123.369 211.805 123.371 L 178.102 123.371 L 178.102 76.107 Z M 179.102 77.107 L 179.102 122.371 L 211.805 122.371 C 220.809 122.373 227.705 121.533 232.576 119.836 C 237.418 118.174 241.045 115.035 243.592 110.304 C 245.6 106.949 246.583 103.235 246.583 99.068 C 246.583 90.153 243.544 84.378 237.23 81.516 C 230.869 78.566 221.168 77.104 208.021 77.107 Z" style="fill: none;"/>
  <path d="M 219.007 228.84 L 164.32 228.84 C 156.351 228.829 150.535 226.981 147.051 223.375 C 143.616 219.734 141.858 213.926 141.847 206.123 L 141.847 71.602 C 141.858 63.635 143.661 57.782 147.181 54.219 C 150.743 50.698 156.515 48.896 164.32 48.885 L 222.303 48.885 C 230.867 48.886 238.314 49.417 244.603 50.479 C 250.913 51.544 256.614 53.613 261.622 56.646 C 265.888 59.193 269.694 62.442 272.978 66.336 C 276.259 70.236 278.785 74.585 280.512 79.303 C 282.164 83.892 291.415 93.179 291.415 98.564 C 291.415 107.651 286.978 114.538 280.367 120.073 C 273.768 125.598 265.671 129.542 257.111 133.532 C 268.33 137.293 276.667 142.493 282.599 149.84 C 288.534 157.193 291.529 166.414 291.529 177.315 C 291.529 187.392 288.917 196.54 283.759 204.622 C 278.585 212.694 271.549 218.711 262.779 222.575 C 257.293 224.866 250.963 226.492 243.854 227.432 C 236.755 228.37 228.461 228.84 219.007 228.84 Z M 243.722 226.44 C 250.773 225.508 256.972 223.921 262.389 221.654 C 271.033 217.868 277.839 212.044 282.917 204.084 C 288.015 196.134 290.529 187.256 290.529 177.315 C 290.529 166.569 287.644 157.682 281.82 150.468 C 275.992 143.248 267.302 137.807 255.598 134.089 L 254.373 133.7 L 255.54 133.159 C 264.487 129.011 273.218 124.754 279.726 119.306 C 286.222 113.867 290.415 107.38 290.415 98.564 C 290.415 93.531 281.34 84.416 279.572 79.647 C 277.883 75.007 275.445 70.81 272.214 66.98 C 268.988 63.144 265.308 60.003 261.11 57.504 C 256.191 54.515 250.659 52.516 244.437 51.465 C 238.194 50.411 230.831 49.884 222.303 49.885 L 164.32 49.885 C 156.663 49.874 151.245 51.53 147.889 54.927 C 144.493 58.282 142.836 63.781 142.847 71.602 L 142.847 206.123 C 142.836 213.782 144.456 219.246 147.775 222.685 C 151.047 226.159 156.501 227.851 164.32 227.84 L 219.007 227.84 C 228.433 227.84 236.661 227.374 243.722 226.44 Z M 245.034 154.555 C 251.472 158.726 254.786 165.487 254.786 174.629 C 254.786 183.563 251.616 190.415 245.392 194.901 C 239.192 199.372 229.848 201.611 217.542 201.618 L 178.102 201.618 L 178.102 148.372 L 216.322 148.372 C 228.988 148.378 238.604 150.452 245.034 154.555 Z M 216.322 149.372 L 179.102 149.372 L 179.102 200.618 L 217.542 200.618 C 229.732 200.625 238.76 198.449 244.808 194.09 C 250.832 189.747 253.786 183.354 253.786 174.629 C 253.786 165.705 250.752 159.364 244.494 155.397 C 238.23 151.362 228.884 149.366 216.322 149.372 Z M 208.021 76.107 C 221.242 76.11 231.153 77.618 237.65 80.608 C 244.194 83.688 247.583 89.917 247.583 99.068 C 247.583 103.363 246.524 107.31 244.467 110.789 C 241.806 115.66 237.91 119.024 232.904 120.78 C 227.929 122.501 220.869 123.369 211.805 123.371 L 178.102 123.371 L 178.102 76.107 Z M 179.102 77.107 L 179.102 122.371 L 211.805 122.371 C 220.809 122.373 227.705 121.533 232.576 119.836 C 237.418 118.174 241.045 115.035 243.592 110.304 C 245.6 106.949 246.583 103.235 246.583 99.068 C 246.583 90.153 243.544 84.378 237.23 81.516 C 230.869 78.566 221.168 77.104 208.021 77.107 Z" style="fill: none;"/>
  <path d="M 219.007 228.84 L 164.32 228.84 C 156.351 228.829 150.535 226.981 147.051 223.375 C 143.616 219.734 141.858 213.926 141.847 206.123 L 141.847 71.602 C 141.858 63.635 143.661 57.782 147.181 54.219 C 150.743 50.698 156.515 48.896 164.32 48.885 L 222.303 48.885 C 230.867 48.886 238.314 49.417 244.603 50.479 C 250.913 51.544 256.614 53.613 261.622 56.646 C 265.888 59.193 269.694 62.442 272.978 66.336 C 276.259 70.236 278.785 74.585 280.512 79.303 C 282.164 83.892 291.415 93.179 291.415 98.564 C 291.415 107.651 286.978 114.538 280.367 120.073 C 273.768 125.598 265.671 129.542 257.111 133.532 C 268.33 137.293 276.667 142.493 282.599 149.84 C 288.534 157.193 291.529 166.414 291.529 177.315 C 291.529 187.392 288.917 196.54 283.759 204.622 C 278.585 212.694 271.549 218.711 262.779 222.575 C 257.293 224.866 250.963 226.492 243.854 227.432 C 236.755 228.37 228.461 228.84 219.007 228.84 Z M 243.722 226.44 C 250.773 225.508 256.972 223.921 262.389 221.654 C 271.033 217.868 277.839 212.044 282.917 204.084 C 288.015 196.134 290.529 187.256 290.529 177.315 C 290.529 166.569 287.644 157.682 281.82 150.468 C 275.992 143.248 267.302 137.807 255.598 134.089 L 254.373 133.7 L 255.54 133.159 C 264.487 129.011 273.218 124.754 279.726 119.306 C 286.222 113.867 290.415 107.38 290.415 98.564 C 290.415 93.531 281.34 84.416 279.572 79.647 C 277.883 75.007 275.445 70.81 272.214 66.98 C 268.988 63.144 265.308 60.003 261.11 57.504 C 256.191 54.515 250.659 52.516 244.437 51.465 C 238.194 50.411 230.831 49.884 222.303 49.885 L 164.32 49.885 C 156.663 49.874 151.245 51.53 147.889 54.927 C 144.493 58.282 142.836 63.781 142.847 71.602 L 142.847 206.123 C 142.836 213.782 144.456 219.246 147.775 222.685 C 151.047 226.159 156.501 227.851 164.32 227.84 L 219.007 227.84 C 228.433 227.84 236.661 227.374 243.722 226.44 Z M 245.034 154.555 C 251.472 158.726 254.786 165.487 254.786 174.629 C 254.786 183.563 251.616 190.415 245.392 194.901 C 239.192 199.372 229.848 201.611 217.542 201.618 L 178.102 201.618 L 178.102 148.372 L 216.322 148.372 C 228.988 148.378 238.604 150.452 245.034 154.555 Z M 216.322 149.372 L 179.102 149.372 L 179.102 200.618 L 217.542 200.618 C 229.732 200.625 238.76 198.449 244.808 194.09 C 250.832 189.747 253.786 183.354 253.786 174.629 C 253.786 165.705 250.752 159.364 244.494 155.397 C 238.23 151.362 228.884 149.366 216.322 149.372 Z M 208.021 76.107 C 221.242 76.11 231.153 77.618 237.65 80.608 C 244.194 83.688 247.583 89.917 247.583 99.068 C 247.583 103.363 246.524 107.31 244.467 110.789 C 241.806 115.66 237.91 119.024 232.904 120.78 C 227.929 122.501 220.869 123.369 211.805 123.371 L 178.102 123.371 L 178.102 76.107 Z M 179.102 77.107 L 179.102 122.371 L 211.805 122.371 C 220.809 122.373 227.705 121.533 232.576 119.836 C 237.418 118.174 241.045 115.035 243.592 110.304 C 245.6 106.949 246.583 103.235 246.583 99.068 C 246.583 90.153 243.544 84.378 237.23 81.516 C 230.869 78.566 221.168 77.104 208.021 77.107 Z" style="fill: none;"/>
</svg>