<?xml version="1.0" encoding="utf-8"?><svg xmlns="http://www.w3.org/2000/svg" viewBox="0 0 360.779 358.125"><ellipse cx="179.282" cy="178.428" rx="165.671" ry="164.711" style="stroke-width:25px;fill:rgba(170,170,170,0);stroke:rgb(230,138,46)"/><path d="M392.246 302.235H292.051v-25.586h100.195Zm0-43.36H292.051v-25.586h100.195Z" style="fill:rgb(230,138,46);white-space:pre" transform="matrix(.3918 0 0 1 160.377 -86.151)"/><path d="M392.246 302.235H292.051v-25.586h100.195Zm0-43.36H292.051v-25.586h100.195Z" style="white-space:pre;fill:rgb(230,138,46)" transform="matrix(.3918 0 0 1 -64.956 -81.542)"/><path d="M185.579 266.711h-54.687q-11.84 0-16.907-5.31-5.066-5.31-5.066-16.907V109.973q0-11.84 5.188-17.029 5.189-5.188 16.785-5.188l42.233.188c8.546 0 13.135.138 37.875.133s36.783 2.792 37.12 16.084c.394 15.531-17.552 15.204-35.695 15.204-6.716 0-24.648-.387-37.832-.387h-29.419v42.264h33.203c26.512 1.154 31.462 1.081 45.303 5.38 21.451 7.005 33.921 27.417 33.921 49.064q0 15.014-7.691 27.038t-20.752 17.761q-8.178 3.418-18.798 4.822t-24.781 1.404m-2.685-79.468h-37.72v52.246h38.94q36.744 0 36.744-26.489 0-13.55-9.522-19.653-9.52-6.104-28.442-6.104" style="paint-order:fill;stroke-linecap:round;stroke-miterlimit:1;white-space:pre;fill:rgb(230,138,46)"/><path d="M219.007 228.84H164.32c-7.969-.011-13.785-1.859-17.269-5.465-3.435-3.641-5.193-9.449-5.204-17.252V71.602c.011-7.967 1.814-13.82 5.334-17.383 3.562-3.521 9.334-5.323 17.139-5.334h57.983c8.564.001 16.011.532 22.3 1.594 6.31 1.065 12.011 3.134 17.019 6.167 4.266 2.547 8.072 5.796 11.356 9.69a43 43 0 0 1 7.534 12.967c1.652 4.589 10.903 13.876 10.903 19.261 0 9.087-4.437 15.974-11.048 21.509-6.599 5.525-14.696 9.469-23.256 13.459 11.219 3.761 19.556 8.961 25.488 16.308 5.935 7.353 8.93 16.574 8.93 27.475 0 10.077-2.612 19.225-7.77 27.307-5.174 8.072-12.21 14.089-20.98 17.953-5.486 2.291-11.816 3.917-18.925 4.857-7.099.938-15.393 1.408-24.847 1.408m24.715-2.4c7.051-.932 13.25-2.519 18.667-4.786 8.644-3.786 15.45-9.61 20.528-17.57 5.098-7.95 7.612-16.828 7.612-26.769 0-10.746-2.885-19.633-8.709-26.847-5.828-7.22-14.518-12.661-26.222-16.379l-1.225-.389 1.167-.541c8.947-4.148 17.678-8.405 24.186-13.853 6.496-5.439 10.689-11.926 10.689-20.742 0-5.033-9.075-14.148-10.843-18.917-1.689-4.64-4.127-8.837-7.358-12.667-3.226-3.836-6.906-6.977-11.104-9.476-4.919-2.989-10.451-4.988-16.673-6.039-6.243-1.054-13.606-1.581-22.134-1.58H164.32c-7.657-.011-13.075 1.645-16.431 5.042-3.396 3.355-5.053 8.854-5.042 16.675v134.521c-.011 7.659 1.609 13.123 4.928 16.562 3.272 3.474 8.726 5.166 16.545 5.155h54.687c9.426 0 17.654-.466 24.715-1.4m1.312-71.885c6.438 4.171 9.752 10.932 9.752 20.074 0 8.934-3.17 15.786-9.394 20.272-6.2 4.471-15.544 6.71-27.85 6.717h-39.44v-53.246h38.22c12.666.006 22.282 2.08 28.712 6.183m-28.712-5.183h-37.22v51.246h38.44c12.19.007 21.218-2.169 27.266-6.528 6.024-4.343 8.978-10.736 8.978-19.461 0-8.924-3.034-15.265-9.292-19.232-6.264-4.035-15.61-6.031-28.172-6.025m-8.301-73.265c13.221.003 23.132 1.511 29.629 4.501 6.544 3.08 9.933 9.309 9.933 18.46 0 4.295-1.059 8.242-3.116 11.721-2.661 4.871-6.557 8.235-11.563 9.991-4.975 1.721-12.035 2.589-21.099 2.591h-33.703V76.107Zm-28.919 1v45.264h32.703c9.004.002 15.9-.838 20.771-2.535 4.842-1.662 8.469-4.801 11.016-9.532 2.008-3.355 2.991-7.069 2.991-11.236 0-8.915-3.039-14.69-9.353-17.552-6.361-2.95-16.062-4.412-29.209-4.409Z" style="fill:none"/><path d="M219.007 228.84H164.32c-7.969-.011-13.785-1.859-17.269-5.465-3.435-3.641-5.193-9.449-5.204-17.252V71.602c.011-7.967 1.814-13.82 5.334-17.383 3.562-3.521 9.334-5.323 17.139-5.334h57.983c8.564.001 16.011.532 22.3 1.594 6.31 1.065 12.011 3.134 17.019 6.167 4.266 2.547 8.072 5.796 11.356 9.69a43 43 0 0 1 7.534 12.967c1.652 4.589 10.903 13.876 10.903 19.261 0 9.087-4.437 15.974-11.048 21.509-6.599 5.525-14.696 9.469-23.256 13.459 11.219 3.761 19.556 8.961 25.488 16.308 5.935 7.353 8.93 16.574 8.93 27.475 0 10.077-2.612 19.225-7.77 27.307-5.174 8.072-12.21 14.089-20.98 17.953-5.486 2.291-11.816 3.917-18.925 4.857-7.099.938-15.393 1.408-24.847 1.408m24.715-2.4c7.051-.932 13.25-2.519 18.667-4.786 8.644-3.786 15.45-9.61 20.528-17.57 5.098-7.95 7.612-16.828 7.612-26.769 0-10.746-2.885-19.633-8.709-26.847-5.828-7.22-14.518-12.661-26.222-16.379l-1.225-.389 1.167-.541c8.947-4.148 17.678-8.405 24.186-13.853 6.496-5.439 10.689-11.926 10.689-20.742 0-5.033-9.075-14.148-10.843-18.917-1.689-4.64-4.127-8.837-7.358-12.667-3.226-3.836-6.906-6.977-11.104-9.476-4.919-2.989-10.451-4.988-16.673-6.039-6.243-1.054-13.606-1.581-22.134-1.58H164.32c-7.657-.011-13.075 1.645-16.431 5.042-3.396 3.355-5.053 8.854-5.042 16.675v134.521c-.011 7.659 1.609 13.123 4.928 16.562 3.272 3.474 8.726 5.166 16.545 5.155h54.687c9.426 0 17.654-.466 24.715-1.4m1.312-71.885c6.438 4.171 9.752 10.932 9.752 20.074 0 8.934-3.17 15.786-9.394 20.272-6.2 4.471-15.544 6.71-27.85 6.717h-39.44v-53.246h38.22c12.666.006 22.282 2.08 28.712 6.183m-28.712-5.183h-37.22v51.246h38.44c12.19.007 21.218-2.169 27.266-6.528 6.024-4.343 8.978-10.736 8.978-19.461 0-8.924-3.034-15.265-9.292-19.232-6.264-4.035-15.61-6.031-28.172-6.025m-8.301-73.265c13.221.003 23.132 1.511 29.629 4.501 6.544 3.08 9.933 9.309 9.933 18.46 0 4.295-1.059 8.242-3.116 11.721-2.661 4.871-6.557 8.235-11.563 9.991-4.975 1.721-12.035 2.589-21.099 2.591h-33.703V76.107Zm-28.919 1v45.264h32.703c9.004.002 15.9-.838 20.771-2.535 4.842-1.662 8.469-4.801 11.016-9.532 2.008-3.355 2.991-7.069 2.991-11.236 0-8.915-3.039-14.69-9.353-17.552-6.361-2.95-16.062-4.412-29.209-4.409Z" style="fill:none"/><path d="M219.007 228.84H164.32c-7.969-.011-13.785-1.859-17.269-5.465-3.435-3.641-5.193-9.449-5.204-17.252V71.602c.011-7.967 1.814-13.82 5.334-17.383 3.562-3.521 9.334-5.323 17.139-5.334h57.983c8.564.001 16.011.532 22.3 1.594 6.31 1.065 12.011 3.134 17.019 6.167 4.266 2.547 8.072 5.796 11.356 9.69a43 43 0 0 1 7.534 12.967c1.652 4.589 10.903 13.876 10.903 19.261 0 9.087-4.437 15.974-11.048 21.509-6.599 5.525-14.696 9.469-23.256 13.459 11.219 3.761 19.556 8.961 25.488 16.308 5.935 7.353 8.93 16.574 8.93 27.475 0 10.077-2.612 19.225-7.77 27.307-5.174 8.072-12.21 14.089-20.98 17.953-5.486 2.291-11.816 3.917-18.925 4.857-7.099.938-15.393 1.408-24.847 1.408m24.715-2.4c7.051-.932 13.25-2.519 18.667-4.786 8.644-3.786 15.45-9.61 20.528-17.57 5.098-7.95 7.612-16.828 7.612-26.769 0-10.746-2.885-19.633-8.709-26.847-5.828-7.22-14.518-12.661-26.222-16.379l-1.225-.389 1.167-.541c8.947-4.148 17.678-8.405 24.186-13.853 6.496-5.439 10.689-11.926 10.689-20.742 0-5.033-9.075-14.148-10.843-18.917-1.689-4.64-4.127-8.837-7.358-12.667-3.226-3.836-6.906-6.977-11.104-9.476-4.919-2.989-10.451-4.988-16.673-6.039-6.243-1.054-13.606-1.581-22.134-1.58H164.32c-7.657-.011-13.075 1.645-16.431 5.042-3.396 3.355-5.053 8.854-5.042 16.675v134.521c-.011 7.659 1.609 13.123 4.928 16.562 3.272 3.474 8.726 5.166 16.545 5.155h54.687c9.426 0 17.654-.466 24.715-1.4m1.312-71.885c6.438 4.171 9.752 10.932 9.752 20.074 0 8.934-3.17 15.786-9.394 20.272-6.2 4.471-15.544 6.71-27.85 6.717h-39.44v-53.246h38.22c12.666.006 22.282 2.08 28.712 6.183m-28.712-5.183h-37.22v51.246h38.44c12.19.007 21.218-2.169 27.266-6.528 6.024-4.343 8.978-10.736 8.978-19.461 0-8.924-3.034-15.265-9.292-19.232-6.264-4.035-15.61-6.031-28.172-6.025m-8.301-73.265c13.221.003 23.132 1.511 29.629 4.501 6.544 3.08 9.933 9.309 9.933 18.46 0 4.295-1.059 8.242-3.116 11.721-2.661 4.871-6.557 8.235-11.563 9.991-4.975 1.721-12.035 2.589-21.099 2.591h-33.703V76.107Zm-28.919 1v45.264h32.703c9.004.002 15.9-.838 20.771-2.535 4.842-1.662 8.469-4.801 11.016-9.532 2.008-3.355 2.991-7.069 2.991-11.236 0-8.915-3.039-14.69-9.353-17.552-6.361-2.95-16.062-4.412-29.209-4.409Z" style="fill:none"/></svg>